#!OML:ASF F:\VICON\USERDATA\INSTALL\rory3\rory3.ASF
:FULLY-SPECIFIED
:DEGREES
622
root -1.53551 13.7775 -40.4005 -151.992 -3.18069 -175.464
lowerback -20.6181 3.05708 4.55971
upperback -17.2597 -1.42232 0.810635
thorax -7.52651 -3.19433 -1.58723
lowerneck -7.49542 1.37028 -0.764534
upperneck 23.6722 2.41566 5.28756
head 8.50204 2.24994 2.23389
rclavicle -1.09332e-015 2.98177e-016
rhumerus -377.605 -48.7075 376.027
rradius 15.1191
rwrist 42.2379
rhand 6.54992 356.988
rfingers 7.12502
rthumb 31.8472 -30.2483
lclavicle -1.09332e-015 2.98177e-016
lhumerus 68.283 -15.9897 35.2488
lradius 29.501
lwrist -26.7241
lhand 11.2123 23.2856
lfingers 7.12502
lthumb 36.2752 49.5341
rfemur 179.292 -192.328 -151.965
rtibia 29.2184
rfoot -42.9499 -34.2492
rtoes -10.4822
lfemur -82.1255 15.6274 -40.3853
ltibia 80.0299
lfoot -37.8967 28.0335
ltoes 4.91399
623
root -1.53889 13.752 -40.4656 -151.586 -3.06596 -174.725
lowerback -19.7672 3.2186 4.89799
upperback -18.3352 -1.62279 1.04474
thorax -9.28064 -3.55364 -1.3968
lowerneck -5.63945 1.49443 -0.372557
upperneck 22.4688 2.60381 5.04549
head 7.75999 2.31247 2.02874
rclavicle -4.18939e-014 1.10325e-014
rhumerus -376.397 -48.3074 375.257
rradius 14.951
rwrist 43.1519
rhand 6.96761 357.227
rfingers 7.12502
rthumb 32.2449 -29.9297
lclavicle -4.18939e-014 1.10325e-014
lhumerus 67.6827 -16.1855 34.7473
lradius 29.9609
lwrist -26.9778
lhand 11.5315 23.2239
lfingers 7.12502
lthumb 36.5775 49.3964
rfemur 179.151 -192.766 -151.338
rtibia 29.0419
rfoot -42.5613 -34.0837
rtoes -9.8207
lfemur -82.8187 15.8197 -39.6732
ltibia 80.5353
lfoot -38.501 27.7644
ltoes 5.40465
624
root -1.56298 13.7305 -40.5657 -151.14 -3.03686 -174.493
lowerback -20.9828 3.30719 5.13139
upperback -18.0851 -1.64974 1.03999
thorax -8.36148 -3.58506 -1.61006
lowerneck -6.14561 1.73226 -0.293616
upperneck 22.0798 2.73626 5.52437
head 7.7117 2.38637 2.17876
rclavicle 3.67752e-015 -1.13307e-014
rhumerus -377.529 -53.2794 376.631
rradius 15.3754
rwrist 47.7958
rhand 7.74907 357.531
rfingers 7.12502
rthumb 32.9884 -29.472
lclavicle 3.67752e-015 -1.13307e-014
lhumerus 68.5942 -15.1364 33.9399
lradius 30.186
lwrist -27.102
lhand 11.4494 23.1816
lfingers 7.12502
lthumb 36.4998 49.3738
rfemur 178.913 -192.099 -151.521
rtibia 29.1957
rfoot -42.4742 -33.1789
rtoes -10.0682
lfemur -83.0427 15.7775 -39.5216
ltibia 80.778
lfoot -38.8738 27.8613
ltoes 4.50906
625
root -1.55383 13.7528 -40.6053 -151.105 -2.12694 -174.794
lowerback -21.0533 3.41891 4.38288
upperback -17.8096 -1.28376 0.768673
thorax -7.95637 -3.27846 -1.47362
lowerneck -6.18863 1.74247 -0.252075
upperneck 21.0158 2.56604 5.89393
head 7.36861 2.27096 2.24408
rclavicle -1.88084e-014 9.11303e-015
rhumerus -377.249 -48.878 376.232
rradius 15.0269
rwrist 42.6683
rhand 7.56717 356.813
rfingers 7.12502
rthumb 32.8154 -30.2256
lclavicle -1.88084e-014 9.11303e-015
lhumerus 70.0393 -14.2721 33.4322
lradius 30.1186
lwrist -27.3661
lhand 10.9804 23.3144
lfingers 7.12502
lthumb 36.0557 49.6172
rfemur 178.932 -193.306 -152.008
rtibia 29.2394
rfoot -42.4687 -33.1731
rtoes -8.92281
lfemur -82.8251 16.3705 -40.0349
ltibia 80.64
lfoot -38.9402 27.9733
ltoes 4.31785
626
root -1.55357 13.7721 -40.6492 -150.872 -1.49739 -174.802
lowerback -19.3467 3.50187 3.76366
upperback -19.2356 -1.51845 0.83269
thorax -10.6005 -3.60811 -0.861995
lowerneck -4.34167 1.8291 0.140127
upperneck 21.0026 2.81562 5.94608
head 7.03178 2.47178 2.18166
rclavicle 1.1076e-014 -2.11333e-014
rhumerus -374.659 -37.6507 373.197
rradius 15.4454
rwrist 33.0631
rhand 7.47526 355.598
rfingers 7.12502
rthumb 32.728 -31.459
lclavicle 1.1076e-014 -2.11333e-014
lhumerus 69.0384 -15.0759 32.8677
lradius 30.1563
lwrist -27.1436
lhand 10.0323 24.3541
lfingers 7.12502
lthumb 35.157 50.8733
rfemur 178.697 -194.212 -152.233
rtibia 29.2737
rfoot -42.2439 -33.4444
rtoes -8.87412
lfemur -82.8663 16.7487 -40.2066
ltibia 80.5419
lfoot -39.7745 27.1256
ltoes 6.67343
627
root -1.57825 13.7751 -40.7396 -150.524 -1.05324 -175.314
lowerback -19.336 -3.59134 5.81245
upperback -19.5509 0.564656 2.46654
thorax -11.3431 2.27276 -0.93407
lowerneck -3.66876 1.6818 0.00135159
upperneck 20.6464 2.59302 6.36628
head 6.79436 2.38556 2.30316
rclavicle -1.91703e-014 2.03506e-014
rhumerus -377.559 -53.1614 377.105
rradius 15.8994
rwrist 49.4627
rhand 9.16342 357.618
rfingers 7.12502
rthumb 34.3324 -29.0913
lclavicle -1.91703e-014 2.03506e-014
lhumerus 69.396 -15.2102 32.3643
lradius 30.2492
lwrist -26.9823
lhand 10.5718 24.0416
lfingers 7.12502
lthumb 35.6685 50.4388
rfemur 178.532 -193.903 -153.21
rtibia 29.3501
rfoot -41.8369 -33.5134
rtoes -10.3405
lfemur -82.5773 16.7139 -40.9164
ltibia 80.45
lfoot -39.8809 27.4888
ltoes 5.38098
628
root -1.58988 13.7613 -40.7987 -149.976 -1.07372 -175.025
lowerback -21.6561 -3.24339 6.01276
upperback -18.178 0.301009 2.40309
thorax -8.41553 2.01055 -1.02302
lowerneck -5.49933 2.16478 0.971279
upperneck 19.0907 2.92857 5.62497
head 6.63859 2.38999 1.90646
rclavicle 2.04997e-015 2.66371e-014
rhumerus -377.118 -53.4268 376.743
rradius 14.8837
rwrist 47.0114
rhand 8.80205 356.055
rfingers 7.12502
rthumb 33.9893 -30.7308
lclavicle 2.04997e-015 2.66371e-014
lhumerus 71.2942 -12.4019 31.9062
lradius 29.9041
lwrist -27.5146
lhand 10.4422 23.4399
lfingers 7.12502
lthumb 35.5456 49.8668
rfemur 178.044 -193.673 -153.136
rtibia 29.376
rfoot -41.3533 -33.6088
rtoes -11.5254
lfemur -83.0611 16.5438 -40.6931
ltibia 80.5488
lfoot -40.389 27.2155
ltoes 6.07993
629
root -1.60019 13.7557 -40.856 -149.364 -0.934089 -175.064
lowerback -22.8248 -2.93214 6.06262
upperback -17.6517 0.440038 2.08698
thorax -7.1783 2.03115 -1.32885
lowerneck -6.68485 2.32418 1.21095
upperneck 18.3396 2.92261 5.7788
head 6.61021 2.34677 1.91574
rclavicle 8.77137e-015 -1.85864e-014
rhumerus -379.195 -54.8407 379.157
rradius 15.0015
rwrist 49.7006
rhand 11.9632 359.867
rfingers 7.12502
rthumb 36.9859 -26.2011
lclavicle 8.77137e-015 -1.85864e-014
lhumerus 72.7477 -10.9842 31.926
lradius 29.7207
lwrist -28.1408
lhand 10.3135 22.9806
lfingers 7.12502
lthumb 35.4236 49.4366
rfemur 177.326 -193.359 -153.517
rtibia 29.6321
rfoot -40.9831 -33.3336
rtoes -12.378
lfemur -83.4447 16.4063 -40.9484
ltibia 80.4162
lfoot -40.0265 27.7142
ltoes 4.38021
630
root -1.60726 13.7775 -40.9188 -148.968 -0.300386 -175.785
lowerback -22.5492 -3.29299 4.95888
upperback -17.9629 0.238605 2.0584
thorax -7.6383 2.05691 -0.793778
lowerneck -7.10011 2.10313 0.398083
upperneck 18.1545 2.5464 6.5617
head 6.60757 2.16104 2.27616
rclavicle -5.8393e-015 -7.7526e-015
rhumerus -377.594 -52.9816 376.727
rradius 15.6433
rwrist 45.722
rhand 10.6398 356.027
rfingers 7.12502
rthumb 35.7329 -30.355
lclavicle -5.8393e-015 -7.7526e-015
lhumerus 72.6939 -10.3643 31.7462
lradius 29.6307
lwrist -28.1718
lhand 10.0456 22.6945
lfingers 7.12502
lthumb 35.1696 49.2108
rfemur 176.91 -193.591 -154.641
rtibia 29.7727
rfoot -40.7027 -33.3785
rtoes -12.8536
lfemur -83.248 16.4982 -42.015
ltibia 80.1071
lfoot -40.1716 27.7161
ltoes 4.01392
